<svg xmlns="http://www.w3.org/2000/svg" xmlns:xlink="http://www.w3.org/1999/xlink" width="1366" zoomAndPan="magnify" viewBox="0 0 1024.5 576" height="768" preserveAspectRatio="xMidYMid meet" version="1.0"><defs><filter x="0%" y="0%" width="100%" height="100%" id="fe5831fbb0"><feColorMatrix values="0 0 0 0 1 0 0 0 0 1 0 0 0 0 1 0 0 0 1 0" color-interpolation-filters="sRGB"/></filter><clipPath id="0bf3c9ba79"><path d="M 0 0.140625 L 1024 0.140625 L 1024 575.859375 L 0 575.859375 Z M 0 0.140625 " clip-rule="nonzero"/></clipPath><clipPath id="fa8af2a5dd"><path d="M 0 0.140625 L 1024 0.140625 L 1024 575.859375 L 0 575.859375 Z M 0 0.140625 " clip-rule="nonzero"/></clipPath><clipPath id="c73e82b842"><rect x="0" width="1024" y="0" height="576"/></clipPath><clipPath id="fd815ac931"><path d="M 317.003906 0.140625 L 391.863281 0.140625 L 391.863281 84.273438 L 317.003906 84.273438 Z M 317.003906 0.140625 " clip-rule="nonzero"/></clipPath><clipPath id="f170aa9f2b"><path d="M 391.863281 -145.859375 L 391.863281 84.273438 L 317.003906 84.273438 Z M 391.863281 -145.859375 " clip-rule="nonzero"/></clipPath><clipPath id="43a6127608"><path d="M 0.00390625 0.140625 L 74.863281 0.140625 L 74.863281 84.273438 L 0.00390625 84.273438 Z M 0.00390625 0.140625 " clip-rule="nonzero"/></clipPath><clipPath id="8f5684d302"><path d="M 74.863281 -145.859375 L 74.863281 84.273438 L 0.00390625 84.273438 Z M 74.863281 -145.859375 " clip-rule="nonzero"/></clipPath><clipPath id="06c8f53cb0"><rect x="0" width="75" y="0" height="85"/></clipPath><clipPath id="357859cb5d"><path d="M 221.585938 86.949219 L 412.566406 86.949219 L 412.566406 223.898438 L 221.585938 223.898438 Z M 221.585938 86.949219 " clip-rule="nonzero"/></clipPath><clipPath id="faf08e959f"><path d="M 366.78125 86.949219 L 221.585938 86.949219 L 267.238281 223.898438 L 412.429688 223.898438 Z M 366.78125 86.949219 " clip-rule="nonzero"/></clipPath><clipPath id="d73d2e7d2a"><path d="M 0.585938 0.949219 L 191.566406 0.949219 L 191.566406 137.898438 L 0.585938 137.898438 Z M 0.585938 0.949219 " clip-rule="nonzero"/></clipPath><clipPath id="a2ed8340a2"><path d="M 145.78125 0.949219 L 0.585938 0.949219 L 46.238281 137.898438 L 191.429688 137.898438 Z M 145.78125 0.949219 " clip-rule="nonzero"/></clipPath><clipPath id="a8057408e5"><rect x="0" width="192" y="0" height="138"/></clipPath><clipPath id="67ab6a89e5"><path d="M 122.253906 0.140625 L 312.695312 0.140625 L 312.695312 157.621094 L 122.253906 157.621094 Z M 122.253906 0.140625 " clip-rule="nonzero"/></clipPath><clipPath id="d30120fea1"><path d="M 312.445312 157.621094 L 122.253906 157.621094 L 122.253906 -24.976562 Z M 312.445312 157.621094 " clip-rule="nonzero"/></clipPath><clipPath id="7b8e911f45"><path d="M 0.253906 0.140625 L 190.566406 0.140625 L 190.566406 157.621094 L 0.253906 157.621094 Z M 0.253906 0.140625 " clip-rule="nonzero"/></clipPath><clipPath id="45df4f7dce"><path d="M 190.445312 157.621094 L 0.253906 157.621094 L 0.253906 -24.976562 Z M 190.445312 157.621094 " clip-rule="nonzero"/></clipPath><clipPath id="fcf6a157ac"><rect x="0" width="191" y="0" height="158"/></clipPath><clipPath id="6d55fcd8b8"><path d="M 0 0.140625 L 173 0.140625 L 173 129.675781 L 0 129.675781 Z M 0 0.140625 " clip-rule="nonzero"/></clipPath><clipPath id="0bf4259c93"><path d="M 43.179688 129.675781 L 129.535156 129.675781 L 172.714844 0.140625 L 0 0.140625 Z M 43.179688 129.675781 " clip-rule="nonzero"/></clipPath><clipPath id="c4b615a999"><path d="M 0 0.140625 L 172.714844 0.140625 L 172.714844 129.675781 L 0 129.675781 Z M 0 0.140625 " clip-rule="nonzero"/></clipPath><clipPath id="ef19f60a74"><path d="M 43.179688 129.675781 L 129.535156 129.675781 L 172.714844 0.140625 L 0 0.140625 Z M 43.179688 129.675781 " clip-rule="nonzero"/></clipPath><clipPath id="aba90f6594"><rect x="0" width="173" y="0" height="130"/></clipPath><clipPath id="1ac88045cf"><path d="M 132.75 0.140625 L 307.574219 0.140625 L 307.574219 153 L 132.75 153 Z M 132.75 0.140625 " clip-rule="nonzero"/></clipPath><clipPath id="2d0c72d65c"><path d="M 307.574219 152.75 L 132.75 152.75 L 132.75 -29.84375 Z M 307.574219 152.75 " clip-rule="nonzero"/></clipPath><clipPath id="ce3e8bdcf5"><path d="M 0.75 0.140625 L 175.574219 0.140625 L 175.574219 152.945312 L 0.75 152.945312 Z M 0.75 0.140625 " clip-rule="nonzero"/></clipPath><clipPath id="28489a907c"><path d="M 175.574219 152.75 L 0.75 152.75 L 0.75 -29.84375 Z M 175.574219 152.75 " clip-rule="nonzero"/></clipPath><clipPath id="9a08d1aeaa"><rect x="0" width="176" y="0" height="153"/></clipPath><clipPath id="ef6c361c92"><path d="M 235.789062 84.277344 L 418.738281 84.277344 L 418.738281 221.226562 L 235.789062 221.226562 Z M 235.789062 84.277344 " clip-rule="nonzero"/></clipPath><clipPath id="147a14eefc"><path d="M 372.734375 84.277344 L 235.789062 84.277344 L 281.4375 221.226562 L 418.382812 221.226562 Z M 372.734375 84.277344 " clip-rule="nonzero"/></clipPath><clipPath id="6a2fa534a2"><path d="M 0.789062 0.277344 L 183.59375 0.277344 L 183.59375 137.226562 L 0.789062 137.226562 Z M 0.789062 0.277344 " clip-rule="nonzero"/></clipPath><clipPath id="b804bcca87"><path d="M 137.734375 0.277344 L 0.789062 0.277344 L 46.4375 137.226562 L 183.382812 137.226562 Z M 137.734375 0.277344 " clip-rule="nonzero"/></clipPath><clipPath id="7f70847877"><rect x="0" width="184" y="0" height="138"/></clipPath><clipPath id="b3bf3e9c3b"><path d="M 42.742188 37.207031 L 140.914062 37.207031 L 140.914062 267.296875 L 42.742188 267.296875 Z M 42.742188 37.207031 " clip-rule="nonzero"/></clipPath><clipPath id="0900d41459"><path d="M 91.828125 37.207031 L 140.914062 267.230469 L 42.742188 267.230469 Z M 91.828125 37.207031 " clip-rule="nonzero"/></clipPath><clipPath id="ea7907d770"><path d="M 0.742188 0.207031 L 98.914062 0.207031 L 98.914062 230.296875 L 0.742188 230.296875 Z M 0.742188 0.207031 " clip-rule="nonzero"/></clipPath><clipPath id="c4f687f142"><path d="M 49.828125 0.207031 L 98.914062 230.230469 L 0.742188 230.230469 Z M 49.828125 0.207031 " clip-rule="nonzero"/></clipPath><clipPath id="7909cd6d4f"><rect x="0" width="99" y="0" height="231"/></clipPath><clipPath id="44593659b3"><path d="M 27.175781 120.8125 L 95.992188 120.8125 L 95.992188 225 L 27.175781 225 Z M 27.175781 120.8125 " clip-rule="nonzero"/></clipPath><clipPath id="5f0b1517ed"><path d="M 51.71875 224.933594 L 71.449219 224.933594 L 95.992188 120.8125 L 27.175781 120.8125 Z M 51.71875 224.933594 " clip-rule="nonzero"/></clipPath><clipPath id="e18126e55c"><path d="M 0.175781 0.8125 L 68.992188 0.8125 L 68.992188 105 L 0.175781 105 Z M 0.175781 0.8125 " clip-rule="nonzero"/></clipPath><clipPath id="5f403da92e"><path d="M 24.71875 104.933594 L 44.449219 104.933594 L 68.992188 0.8125 L 0.175781 0.8125 Z M 24.71875 104.933594 " clip-rule="nonzero"/></clipPath><clipPath id="a1524a8816"><rect x="0" width="69" y="0" height="105"/></clipPath><clipPath id="31147c3796"><path d="M 58.164062 84.058594 L 125.484375 84.058594 L 125.484375 157.421875 L 58.164062 157.421875 Z M 58.164062 84.058594 " clip-rule="nonzero"/></clipPath><clipPath id="ac62b915df"><path d="M 91.824219 157.421875 L 58.164062 84.191406 L 125.484375 84.191406 Z M 91.824219 157.421875 " clip-rule="nonzero"/></clipPath><clipPath id="734cac4561"><path d="M 0.164062 0.0585938 L 67.484375 0.0585938 L 67.484375 73.421875 L 0.164062 73.421875 Z M 0.164062 0.0585938 " clip-rule="nonzero"/></clipPath><clipPath id="7eaffa0a3b"><path d="M 33.824219 73.421875 L 0.164062 0.191406 L 67.484375 0.191406 Z M 33.824219 73.421875 " clip-rule="nonzero"/></clipPath><clipPath id="6a2a859a59"><rect x="0" width="68" y="0" height="74"/></clipPath><clipPath id="9ce3371fc9"><path d="M 58.167969 50.535156 L 125.488281 50.535156 L 125.488281 117.851562 L 58.167969 117.851562 Z M 58.167969 50.535156 " clip-rule="nonzero"/></clipPath><clipPath id="44ac83f407"><path d="M 91.828125 50.535156 C 73.238281 50.535156 58.167969 65.605469 58.167969 84.195312 C 58.167969 102.785156 73.238281 117.851562 91.828125 117.851562 C 110.417969 117.851562 125.488281 102.785156 125.488281 84.195312 C 125.488281 65.605469 110.417969 50.535156 91.828125 50.535156 Z M 91.828125 50.535156 " clip-rule="nonzero"/></clipPath><clipPath id="a42c584142"><path d="M 0.167969 0.535156 L 67.488281 0.535156 L 67.488281 67.851562 L 0.167969 67.851562 Z M 0.167969 0.535156 " clip-rule="nonzero"/></clipPath><clipPath id="bc6694632b"><path d="M 33.828125 0.535156 C 15.238281 0.535156 0.167969 15.605469 0.167969 34.195312 C 0.167969 52.785156 15.238281 67.851562 33.828125 67.851562 C 52.417969 67.851562 67.488281 52.785156 67.488281 34.195312 C 67.488281 15.605469 52.417969 0.535156 33.828125 0.535156 Z M 33.828125 0.535156 " clip-rule="nonzero"/></clipPath><clipPath id="f1fd00e548"><rect x="0" width="68" y="0" height="68"/></clipPath><clipPath id="3253e43099"><path d="M 58.167969 0.59375 L 125.488281 0.59375 L 125.488281 73.957031 L 58.167969 73.957031 Z M 58.167969 0.59375 " clip-rule="nonzero"/></clipPath><clipPath id="8924330458"><path d="M 91.828125 0.59375 L 125.488281 73.824219 L 58.167969 73.824219 Z M 91.828125 0.59375 " clip-rule="nonzero"/></clipPath><clipPath id="bf21bfa970"><path d="M 0.167969 0.59375 L 67.488281 0.59375 L 67.488281 73.957031 L 0.167969 73.957031 Z M 0.167969 0.59375 " clip-rule="nonzero"/></clipPath><clipPath id="bb9fd4e0db"><path d="M 33.828125 0.59375 L 67.488281 73.824219 L 0.167969 73.824219 Z M 33.828125 0.59375 " clip-rule="nonzero"/></clipPath><clipPath id="b088338f58"><rect x="0" width="68" y="0" height="74"/></clipPath><clipPath id="b765b47f8b"><path d="M 39.277344 70.847656 L 144.378906 70.847656 L 144.378906 76.800781 L 39.277344 76.800781 Z M 39.277344 70.847656 " clip-rule="nonzero"/></clipPath><clipPath id="13088dba4c"><path d="M 0.277344 0.847656 L 105.378906 0.847656 L 105.378906 6.800781 L 0.277344 6.800781 Z M 0.277344 0.847656 " clip-rule="nonzero"/></clipPath><clipPath id="4d00bc763f"><rect x="0" width="106" y="0" height="7"/></clipPath><clipPath id="facdca8de5"><path d="M 80.648438 78.605469 L 91.828125 78.605469 L 91.828125 89.785156 L 80.648438 89.785156 Z M 80.648438 78.605469 " clip-rule="nonzero"/></clipPath><clipPath id="3472f7dbca"><path d="M 86.238281 78.605469 C 83.152344 78.605469 80.648438 81.109375 80.648438 84.195312 C 80.648438 87.28125 83.152344 89.785156 86.238281 89.785156 C 89.324219 89.785156 91.828125 87.28125 91.828125 84.195312 C 91.828125 81.109375 89.324219 78.605469 86.238281 78.605469 Z M 86.238281 78.605469 " clip-rule="nonzero"/></clipPath><clipPath id="80f6515af0"><path d="M 0.648438 0.605469 L 11.828125 0.605469 L 11.828125 11.785156 L 0.648438 11.785156 Z M 0.648438 0.605469 " clip-rule="nonzero"/></clipPath><clipPath id="91f0c7cf83"><path d="M 6.238281 0.605469 C 3.152344 0.605469 0.648438 3.109375 0.648438 6.195312 C 0.648438 9.28125 3.152344 11.785156 6.238281 11.785156 C 9.324219 11.785156 11.828125 9.28125 11.828125 6.195312 C 11.828125 3.109375 9.324219 0.605469 6.238281 0.605469 Z M 6.238281 0.605469 " clip-rule="nonzero"/></clipPath><clipPath id="e6e445386b"><rect x="0" width="12" y="0" height="12"/></clipPath><clipPath id="eade63b7cf"><path d="M 95.007812 78.605469 L 106.1875 78.605469 L 106.1875 89.785156 L 95.007812 89.785156 Z M 95.007812 78.605469 " clip-rule="nonzero"/></clipPath><clipPath id="98677561d6"><path d="M 100.597656 78.605469 C 97.511719 78.605469 95.007812 81.109375 95.007812 84.195312 C 95.007812 87.28125 97.511719 89.785156 100.597656 89.785156 C 103.683594 89.785156 106.1875 87.28125 106.1875 84.195312 C 106.1875 81.109375 103.683594 78.605469 100.597656 78.605469 Z M 100.597656 78.605469 " clip-rule="nonzero"/></clipPath><clipPath id="16820fd506"><path d="M 0.0078125 0.605469 L 11.1875 0.605469 L 11.1875 11.785156 L 0.0078125 11.785156 Z M 0.0078125 0.605469 " clip-rule="nonzero"/></clipPath><clipPath id="4ff3ec61d1"><path d="M 5.597656 0.605469 C 2.511719 0.605469 0.0078125 3.109375 0.0078125 6.195312 C 0.0078125 9.28125 2.511719 11.785156 5.597656 11.785156 C 8.683594 11.785156 11.1875 9.28125 11.1875 6.195312 C 11.1875 3.109375 8.683594 0.605469 5.597656 0.605469 Z M 5.597656 0.605469 " clip-rule="nonzero"/></clipPath><clipPath id="242db76c7f"><rect x="0" width="12" y="0" height="12"/></clipPath><clipPath id="7c4362c8fd"><path d="M 26.207031 26.898438 L 30.863281 26.898438 L 30.863281 267.230469 L 26.207031 267.230469 Z M 26.207031 26.898438 " clip-rule="nonzero"/></clipPath><clipPath id="93ccc6e1f2"><path d="M 0.207031 0.898438 L 4.863281 0.898438 L 4.863281 241.230469 L 0.207031 241.230469 Z M 0.207031 0.898438 " clip-rule="nonzero"/></clipPath><clipPath id="e6759132f7"><rect x="0" width="5" y="0" height="242"/></clipPath><clipPath id="120f413be8"><path d="M 0.867188 120.8125 L 39.277344 120.8125 L 39.277344 159.21875 L 0.867188 159.21875 Z M 0.867188 120.8125 " clip-rule="nonzero"/></clipPath><clipPath id="ccf7a87a63"><path d="M 20.074219 120.8125 C 9.464844 120.8125 0.867188 129.410156 0.867188 140.015625 C 0.867188 150.621094 9.464844 159.21875 20.074219 159.21875 C 30.679688 159.21875 39.277344 150.621094 39.277344 140.015625 C 39.277344 129.410156 30.679688 120.8125 20.074219 120.8125 Z M 20.074219 120.8125 " clip-rule="nonzero"/></clipPath><clipPath id="693149af7a"><path d="M 0.867188 0.8125 L 39.277344 0.8125 L 39.277344 39.21875 L 0.867188 39.21875 Z M 0.867188 0.8125 " clip-rule="nonzero"/></clipPath><clipPath id="4aa37ff565"><path d="M 20.074219 0.8125 C 9.464844 0.8125 0.867188 9.410156 0.867188 20.015625 C 0.867188 30.621094 9.464844 39.21875 20.074219 39.21875 C 30.679688 39.21875 39.277344 30.621094 39.277344 20.015625 C 39.277344 9.410156 30.679688 0.8125 20.074219 0.8125 Z M 20.074219 0.8125 " clip-rule="nonzero"/></clipPath><clipPath id="3de50c3627"><rect x="0" width="40" y="0" height="40"/></clipPath><clipPath id="d90c24ec09"><path d="M 13.183594 13.054688 L 43.886719 13.054688 L 43.886719 43.757812 L 13.183594 43.757812 Z M 13.183594 13.054688 " clip-rule="nonzero"/></clipPath><clipPath id="1c4010aefa"><path d="M 28.535156 13.054688 C 20.058594 13.054688 13.183594 19.925781 13.183594 28.40625 C 13.183594 36.882812 20.058594 43.757812 28.535156 43.757812 C 37.015625 43.757812 43.886719 36.882812 43.886719 28.40625 C 43.886719 19.925781 37.015625 13.054688 28.535156 13.054688 Z M 28.535156 13.054688 " clip-rule="nonzero"/></clipPath><clipPath id="c7e7bd0012"><path d="M 0.183594 0.0546875 L 30.886719 0.0546875 L 30.886719 30.757812 L 0.183594 30.757812 Z M 0.183594 0.0546875 " clip-rule="nonzero"/></clipPath><clipPath id="a3b443cd18"><path d="M 15.535156 0.0546875 C 7.058594 0.0546875 0.183594 6.925781 0.183594 15.40625 C 0.183594 23.882812 7.058594 30.757812 15.535156 30.757812 C 24.015625 30.757812 30.886719 23.882812 30.886719 15.40625 C 30.886719 6.925781 24.015625 0.0546875 15.535156 0.0546875 Z M 15.535156 0.0546875 " clip-rule="nonzero"/></clipPath><clipPath id="f5d187a8c1"><rect x="0" width="31" y="0" height="31"/></clipPath><clipPath id="99aedb507a"><path d="M 21.429688 19.480469 L 39.277344 19.480469 L 39.277344 37.328125 L 21.429688 37.328125 Z M 21.429688 19.480469 " clip-rule="nonzero"/></clipPath><clipPath id="2c70510161"><path d="M 30.355469 19.480469 C 25.425781 19.480469 21.429688 23.476562 21.429688 28.40625 C 21.429688 33.332031 25.425781 37.328125 30.355469 37.328125 C 35.28125 37.328125 39.277344 33.332031 39.277344 28.40625 C 39.277344 23.476562 35.28125 19.480469 30.355469 19.480469 Z M 30.355469 19.480469 " clip-rule="nonzero"/></clipPath><clipPath id="90778fa49a"><path d="M 0.429688 0.480469 L 18.277344 0.480469 L 18.277344 18.328125 L 0.429688 18.328125 Z M 0.429688 0.480469 " clip-rule="nonzero"/></clipPath><clipPath id="76e4b0f9b4"><path d="M 9.355469 0.480469 C 4.425781 0.480469 0.429688 4.476562 0.429688 9.40625 C 0.429688 14.332031 4.425781 18.328125 9.355469 18.328125 C 14.28125 18.328125 18.277344 14.332031 18.277344 9.40625 C 18.277344 4.476562 14.28125 0.480469 9.355469 0.480469 Z M 9.355469 0.480469 " clip-rule="nonzero"/></clipPath><clipPath id="a70d3bbe47"><rect x="0" width="19" y="0" height="19"/></clipPath><clipPath id="75c7f879a7"><rect x="0" width="145" y="0" height="268"/></clipPath><mask id="0255a3f52d"><g filter="url(#fe5831fbb0)"><rect x="-102.45" width="1229.4" fill="#000000" y="-57.6" height="691.2" fill-opacity="0.5"/></g></mask><clipPath id="a8b3f4be1c"><path d="M 0.164062 1.003906 L 150.601562 1.003906 L 150.601562 151.445312 L 0.164062 151.445312 Z M 0.164062 1.003906 " clip-rule="nonzero"/></clipPath><clipPath id="75f4d5c255"><path d="M 75.382812 1.003906 C 33.839844 1.003906 0.164062 34.683594 0.164062 76.226562 C 0.164062 117.769531 33.839844 151.445312 75.382812 151.445312 C 116.925781 151.445312 150.601562 117.769531 150.601562 76.226562 C 150.601562 34.683594 116.925781 1.003906 75.382812 1.003906 Z M 75.382812 1.003906 " clip-rule="nonzero"/></clipPath><clipPath id="d56f2a24a2"><path d="M 0.164062 0.00390625 L 150.601562 0.00390625 L 150.601562 150.445312 L 0.164062 150.445312 Z M 0.164062 0.00390625 " clip-rule="nonzero"/></clipPath><clipPath id="d755f02bd3"><path d="M 75.382812 0.00390625 C 33.839844 0.00390625 0.164062 33.683594 0.164062 75.226562 C 0.164062 116.769531 33.839844 150.445312 75.382812 150.445312 C 116.925781 150.445312 150.601562 116.769531 150.601562 75.226562 C 150.601562 33.683594 116.925781 0.00390625 75.382812 0.00390625 Z M 75.382812 0.00390625 " clip-rule="nonzero"/></clipPath><clipPath id="7e196245ad"><rect x="0" width="151" y="0" height="151"/></clipPath><clipPath id="1b7024dd77"><rect x="0" width="151" y="0" height="152"/></clipPath><clipPath id="d7c8ce75ad"><path d="M 20.640625 93.050781 L 39.605469 93.050781 L 39.605469 119.496094 L 20.640625 119.496094 Z M 20.640625 93.050781 " clip-rule="nonzero"/></clipPath><clipPath id="7a1a100004"><path d="M 26.964844 118.765625 C 27.9375 119.191406 29.042969 119.46875 30.128906 119.46875 C 31.214844 119.46875 32.257812 119.230469 33.21875 118.804688 C 33.238281 118.792969 33.261719 118.792969 33.28125 118.78125 C 36.894531 117.085938 39.554688 112.609375 39.605469 107.453125 L 39.605469 93.050781 L 20.640625 93.050781 L 20.640625 107.445312 C 20.691406 112.632812 23.3125 117.109375 26.964844 118.765625 Z M 26.964844 118.765625 " clip-rule="nonzero"/></clipPath><clipPath id="54761209d1"><path d="M 0.640625 0.0507812 L 19.605469 0.0507812 L 19.605469 26.496094 L 0.640625 26.496094 Z M 0.640625 0.0507812 " clip-rule="nonzero"/></clipPath><clipPath id="66c12cb9a1"><path d="M 6.964844 25.765625 C 7.9375 26.191406 9.042969 26.46875 10.128906 26.46875 C 11.214844 26.46875 12.257812 26.230469 13.21875 25.804688 C 13.238281 25.792969 13.261719 25.792969 13.28125 25.78125 C 16.894531 24.085938 19.554688 19.609375 19.605469 14.453125 L 19.605469 0.0507812 L 0.640625 0.0507812 L 0.640625 14.445312 C 0.691406 19.632812 3.3125 24.109375 6.964844 25.765625 Z M 6.964844 25.765625 " clip-rule="nonzero"/></clipPath><clipPath id="42c1126884"><rect x="0" width="20" y="0" height="27"/></clipPath><clipPath id="9a3a5aa461"><path d="M 0.914062 13.773438 L 8 13.773438 L 8 20.859375 L 0.914062 20.859375 Z M 0.914062 13.773438 " clip-rule="nonzero"/></clipPath><clipPath id="b7b123016a"><path d="M 4.457031 13.773438 C 2.5 13.773438 0.914062 15.359375 0.914062 17.316406 C 0.914062 19.273438 2.5 20.859375 4.457031 20.859375 C 6.414062 20.859375 8 19.273438 8 17.316406 C 8 15.359375 6.414062 13.773438 4.457031 13.773438 Z M 4.457031 13.773438 " clip-rule="nonzero"/></clipPath><clipPath id="6697e675a8"><path d="M 0.914062 0.773438 L 8 0.773438 L 8 7.859375 L 0.914062 7.859375 Z M 0.914062 0.773438 " clip-rule="nonzero"/></clipPath><clipPath id="73db1c22bb"><path d="M 4.457031 0.773438 C 2.5 0.773438 0.914062 2.359375 0.914062 4.316406 C 0.914062 6.273438 2.5 7.859375 4.457031 7.859375 C 6.414062 7.859375 8 6.273438 8 4.316406 C 8 2.359375 6.414062 0.773438 4.457031 0.773438 Z M 4.457031 0.773438 " clip-rule="nonzero"/></clipPath><clipPath id="1ceaa339dd"><rect x="0" width="8" y="0" height="8"/></clipPath><clipPath id="320068270a"><path d="M 2.53125 0.226562 L 40.460938 0.226562 L 40.460938 51.636719 L 2.53125 51.636719 Z M 2.53125 0.226562 " clip-rule="nonzero"/></clipPath><clipPath id="73008646c5"><path d="M 4.015625 34.507812 C 3.121094 31.882812 2.53125 28.882812 2.53125 25.941406 C 2.53125 23.003906 3.035156 20.179688 3.933594 17.574219 C 3.960938 17.515625 3.960938 17.460938 3.988281 17.40625 C 7.570312 7.621094 17.027344 0.414062 27.519531 0.277344 L 40.460938 0.277344 L 40.460938 51.636719 L 27.527344 51.636719 C 16.972656 51.496094 7.515625 44.402344 4.015625 34.507812 Z M 4.015625 34.507812 " clip-rule="nonzero"/></clipPath><clipPath id="924aab1fee"><path d="M 0.53125 0.226562 L 38.460938 0.226562 L 38.460938 51.636719 L 0.53125 51.636719 Z M 0.53125 0.226562 " clip-rule="nonzero"/></clipPath><clipPath id="b3063f3743"><path d="M 2.015625 34.507812 C 1.121094 31.882812 0.53125 28.882812 0.53125 25.941406 C 0.53125 23.003906 1.035156 20.179688 1.933594 17.574219 C 1.960938 17.515625 1.960938 17.460938 1.988281 17.40625 C 5.570312 7.621094 15.027344 0.414062 25.519531 0.277344 L 38.460938 0.277344 L 38.460938 51.636719 L 25.527344 51.636719 C 14.972656 51.496094 5.515625 44.402344 2.015625 34.507812 Z M 2.015625 34.507812 " clip-rule="nonzero"/></clipPath><clipPath id="5c3be73f22"><rect x="0" width="39" y="0" height="52"/></clipPath><clipPath id="580497eca9"><path d="M 41 8 L 77 8 L 77 72 L 41 72 Z M 41 8 " clip-rule="nonzero"/></clipPath><clipPath id="b8e6d0b3a4"><path d="M 81.859375 67.359375 L 65.113281 74.167969 L 41.28125 15.554688 L 58.027344 8.746094 Z M 81.859375 67.359375 " clip-rule="nonzero"/></clipPath><clipPath id="167db7e36e"><path d="M 75.714844 68.257812 C 75.195312 69.433594 74.4375 70.375 73.480469 70.765625 C 72.523438 71.15625 71.410156 71.0625 70.222656 70.578125 C 70.195312 70.5625 70.179688 70.570312 70.148438 70.550781 C 65.609375 68.53125 59.699219 60.722656 55.488281 50.503906 L 41.304688 15.613281 L 58.050781 8.804688 L 72.226562 43.667969 C 76.375 54.003906 77.625 63.707031 75.714844 68.257812 Z M 75.714844 68.257812 " clip-rule="nonzero"/></clipPath><clipPath id="be9ede4d0d"><path d="M 0.121094 0.738281 L 36 0.738281 L 36 63.347656 L 0.121094 63.347656 Z M 0.121094 0.738281 " clip-rule="nonzero"/></clipPath><clipPath id="4ae8f08b44"><path d="M 40.859375 59.359375 L 24.113281 66.167969 L 0.28125 7.554688 L 17.027344 0.746094 Z M 40.859375 59.359375 " clip-rule="nonzero"/></clipPath><clipPath id="4b0bb81d0c"><path d="M 34.714844 60.257812 C 34.195312 61.433594 33.4375 62.375 32.480469 62.765625 C 31.523438 63.15625 30.410156 63.0625 29.222656 62.578125 C 29.195312 62.5625 29.179688 62.570312 29.148438 62.550781 C 24.609375 60.53125 18.699219 52.722656 14.488281 42.503906 L 0.304688 7.613281 L 17.050781 0.804688 L 31.226562 35.667969 C 35.375 46.003906 36.625 55.707031 34.714844 60.257812 Z M 34.714844 60.257812 " clip-rule="nonzero"/></clipPath><clipPath id="05d3bde271"><rect x="0" width="36" y="0" height="64"/></clipPath><clipPath id="78cc505b95"><path d="M 28 9 L 37 9 L 37 18 L 28 18 Z M 28 9 " clip-rule="nonzero"/></clipPath><clipPath id="6711e8b869"><path d="M 29.1875 8.804688 L 37.011719 10.171875 L 35.644531 17.992188 L 27.820312 16.628906 Z M 29.1875 8.804688 " clip-rule="nonzero"/></clipPath><clipPath id="85b2a8b053"><path d="M 33.097656 9.488281 C 30.9375 9.109375 28.878906 10.554688 28.503906 12.714844 C 28.125 14.875 29.570312 16.933594 31.730469 17.3125 C 33.890625 17.6875 35.949219 16.242188 36.328125 14.082031 C 36.703125 11.921875 35.257812 9.863281 33.097656 9.488281 Z M 33.097656 9.488281 " clip-rule="nonzero"/></clipPath><clipPath id="ac52c89c01"><path d="M 0 0 L 8.804688 0 L 8.804688 8.851562 L 0 8.851562 Z M 0 0 " clip-rule="nonzero"/></clipPath><clipPath id="d5ace1dd0e"><path d="M 1.1875 -0.195312 L 9.011719 1.171875 L 7.644531 8.992188 L -0.179688 7.628906 Z M 1.1875 -0.195312 " clip-rule="nonzero"/></clipPath><clipPath id="2a49d78bf1"><path d="M 5.097656 0.488281 C 2.9375 0.109375 0.878906 1.554688 0.503906 3.714844 C 0.125 5.875 1.570312 7.933594 3.730469 8.3125 C 5.890625 8.6875 7.949219 7.242188 8.328125 5.082031 C 8.703125 2.921875 7.257812 0.863281 5.097656 0.488281 Z M 5.097656 0.488281 " clip-rule="nonzero"/></clipPath><clipPath id="ca463d3829"><rect x="0" width="9" y="0" height="9"/></clipPath><clipPath id="68a4e625a6"><path d="M 35.21875 90.941406 L 54.183594 90.941406 L 54.183594 119.535156 L 35.21875 119.535156 Z M 35.21875 90.941406 " clip-rule="nonzero"/></clipPath><clipPath id="594446a8ff"><path d="M 41.542969 118.765625 C 42.515625 119.191406 43.621094 119.46875 44.707031 119.46875 C 45.792969 119.46875 46.835938 119.230469 47.796875 118.804688 C 47.816406 118.792969 47.835938 118.792969 47.859375 118.78125 C 51.472656 117.085938 54.132812 112.609375 54.183594 107.40625 L 54.183594 90.941406 L 35.21875 90.941406 L 35.21875 107.394531 C 35.269531 112.632812 37.890625 117.109375 41.542969 118.765625 Z M 41.542969 118.765625 " clip-rule="nonzero"/></clipPath><clipPath id="695fa8704c"><path d="M 0.21875 0.941406 L 19.183594 0.941406 L 19.183594 29.535156 L 0.21875 29.535156 Z M 0.21875 0.941406 " clip-rule="nonzero"/></clipPath><clipPath id="ca3875734a"><path d="M 6.542969 28.765625 C 7.515625 29.191406 8.621094 29.46875 9.707031 29.46875 C 10.792969 29.46875 11.835938 29.230469 12.796875 28.804688 C 12.816406 28.792969 12.835938 28.792969 12.859375 28.78125 C 16.472656 27.085938 19.132812 22.609375 19.183594 17.40625 L 19.183594 0.941406 L 0.21875 0.941406 L 0.21875 17.394531 C 0.269531 22.632812 2.890625 27.109375 6.542969 28.765625 Z M 6.542969 28.765625 " clip-rule="nonzero"/></clipPath><clipPath id="9c43ae54f0"><rect x="0" width="20" y="0" height="30"/></clipPath><clipPath id="4b556e93de"><path d="M 39.605469 0.1875 L 65.179688 0.1875 L 65.179688 51.636719 L 39.605469 51.636719 Z M 39.605469 0.1875 " clip-rule="nonzero"/></clipPath><clipPath id="bac7f7a017"><path d="M 63.699219 34.507812 C 64.59375 31.875 65.179688 28.878906 65.179688 25.941406 C 65.179688 23.003906 64.675781 20.175781 63.78125 17.570312 C 63.753906 17.515625 63.753906 17.460938 63.726562 17.40625 C 60.144531 7.621094 50.6875 0.414062 40.46875 0.277344 L 39.605469 0.277344 L 39.605469 51.636719 L 40.46875 51.636719 C 50.742188 51.496094 60.199219 44.402344 63.699219 34.507812 Z M 63.699219 34.507812 " clip-rule="nonzero"/></clipPath><clipPath id="df5c73a3d8"><path d="M 0.605469 0.1875 L 26.179688 0.1875 L 26.179688 51.636719 L 0.605469 51.636719 Z M 0.605469 0.1875 " clip-rule="nonzero"/></clipPath><clipPath id="7e0fb80ed5"><path d="M 24.699219 34.507812 C 25.59375 31.875 26.179688 28.878906 26.179688 25.941406 C 26.179688 23.003906 25.675781 20.175781 24.78125 17.570312 C 24.753906 17.515625 24.753906 17.460938 24.726562 17.40625 C 21.144531 7.621094 11.6875 0.414062 1.46875 0.277344 L 0.605469 0.277344 L 0.605469 51.636719 L 1.46875 51.636719 C 11.742188 51.496094 21.199219 44.402344 24.699219 34.507812 Z M 24.699219 34.507812 " clip-rule="nonzero"/></clipPath><clipPath id="49d7ee5567"><rect x="0" width="27" y="0" height="52"/></clipPath><clipPath id="6782929620"><path d="M 11.78125 48.324219 L 58.726562 48.324219 L 58.726562 74.167969 L 11.78125 74.167969 Z M 11.78125 48.324219 " clip-rule="nonzero"/></clipPath><clipPath id="7bcf38f86f"><path d="M 27.414062 49.804688 C 29.808594 48.910156 32.550781 48.324219 35.230469 48.324219 C 37.914062 48.324219 40.492188 48.828125 42.871094 49.722656 C 42.921875 49.75 42.972656 49.75 43.023438 49.777344 C 51.953125 53.359375 58.53125 62.816406 58.65625 73.039062 L 58.65625 74.167969 L 11.78125 74.167969 L 11.78125 73.042969 C 11.90625 62.761719 18.382812 53.304688 27.414062 49.804688 Z M 27.414062 49.804688 " clip-rule="nonzero"/></clipPath><clipPath id="96ee5f1394"><path d="M 0.78125 0.324219 L 47.726562 0.324219 L 47.726562 26.167969 L 0.78125 26.167969 Z M 0.78125 0.324219 " clip-rule="nonzero"/></clipPath><clipPath id="563bda4d51"><path d="M 16.414062 1.804688 C 18.808594 0.910156 21.550781 0.324219 24.230469 0.324219 C 26.914062 0.324219 29.492188 0.828125 31.871094 1.722656 C 31.921875 1.75 31.972656 1.75 32.023438 1.777344 C 40.953125 5.359375 47.53125 14.816406 47.65625 25.039062 L 47.65625 26.167969 L 0.78125 26.167969 L 0.78125 25.042969 C 0.90625 14.761719 7.382812 5.304688 16.414062 1.804688 Z M 16.414062 1.804688 " clip-rule="nonzero"/></clipPath><clipPath id="2dca12c31e"><rect x="0" width="48" y="0" height="27"/></clipPath><clipPath id="af2b27d7a0"><path d="M 11.78125 72.273438 L 58.738281 72.273438 L 58.738281 103.09375 L 11.78125 103.09375 Z M 11.78125 72.273438 " clip-rule="nonzero"/></clipPath><clipPath id="71eeaeb6d6"><path d="M 27.414062 101.613281 C 29.816406 102.507812 32.550781 103.09375 35.230469 103.09375 C 37.914062 103.09375 40.492188 102.589844 42.871094 101.695312 C 42.921875 101.667969 42.972656 101.667969 43.023438 101.640625 C 51.953125 98.058594 58.53125 88.601562 58.65625 78.265625 L 58.65625 72.273438 L 11.78125 72.273438 L 11.78125 78.261719 C 11.90625 88.65625 18.382812 98.113281 27.414062 101.613281 Z M 27.414062 101.613281 " clip-rule="nonzero"/></clipPath><clipPath id="d06ca928a6"><path d="M 0.78125 0.273438 L 47.738281 0.273438 L 47.738281 31.09375 L 0.78125 31.09375 Z M 0.78125 0.273438 " clip-rule="nonzero"/></clipPath><clipPath id="9c4521ee44"><path d="M 16.414062 29.613281 C 18.816406 30.507812 21.550781 31.09375 24.230469 31.09375 C 26.914062 31.09375 29.492188 30.589844 31.871094 29.695312 C 31.921875 29.667969 31.972656 29.667969 32.023438 29.640625 C 40.953125 26.058594 47.53125 16.601562 47.65625 6.265625 L 47.65625 0.273438 L 0.78125 0.273438 L 0.78125 6.261719 C 0.90625 16.65625 7.382812 26.113281 16.414062 29.613281 Z M 16.414062 29.613281 " clip-rule="nonzero"/></clipPath><clipPath id="0e9efb1024"><rect x="0" width="48" y="0" height="32"/></clipPath><clipPath id="d7df6b4ed5"><path d="M 13.648438 57.265625 L 27.636719 57.265625 L 27.636719 93.054688 L 13.648438 93.054688 Z M 13.648438 57.265625 " clip-rule="nonzero"/></clipPath><clipPath id="2bec3fd59a"><path d="M 20.640625 57.265625 C 16.777344 57.265625 13.648438 65.277344 13.648438 75.15625 C 13.648438 85.039062 16.777344 93.050781 20.640625 93.050781 C 24.503906 93.050781 27.636719 85.039062 27.636719 75.15625 C 27.636719 65.277344 24.503906 57.265625 20.640625 57.265625 Z M 20.640625 57.265625 " clip-rule="nonzero"/></clipPath><clipPath id="3f369ed17d"><path d="M 0.648438 0.265625 L 14.636719 0.265625 L 14.636719 36.054688 L 0.648438 36.054688 Z M 0.648438 0.265625 " clip-rule="nonzero"/></clipPath><clipPath id="061a07cb2a"><path d="M 7.640625 0.265625 C 3.777344 0.265625 0.648438 8.277344 0.648438 18.15625 C 0.648438 28.039062 3.777344 36.050781 7.640625 36.050781 C 11.503906 36.050781 14.636719 28.039062 14.636719 18.15625 C 14.636719 8.277344 11.503906 0.265625 7.640625 0.265625 Z M 7.640625 0.265625 " clip-rule="nonzero"/></clipPath><clipPath id="15ee0253e4"><rect x="0" width="15" y="0" height="37"/></clipPath><clipPath id="3edf18aeae"><rect x="0" width="82" y="0" height="120"/></clipPath><clipPath id="dafeccdd68"><path d="M 0 439.082031 L 1024 439.082031 L 1024 575.859375 L 0 575.859375 Z M 0 439.082031 " clip-rule="nonzero"/></clipPath><clipPath id="210885691e"><path d="M 1074.976562 578.160156 C 1074.976562 502.40625 815.914062 439.082031 506.003906 439.082031 C 196.089844 439.082031 -62.96875 502.40625 -62.96875 578.160156 Z M 1074.976562 578.160156 " clip-rule="nonzero"/></clipPath><clipPath id="d701010073"><path d="M 0 0.0820312 L 1024 0.0820312 L 1024 136.859375 L 0 136.859375 Z M 0 0.0820312 " clip-rule="nonzero"/></clipPath><clipPath id="34bfc6d844"><path d="M 1074.976562 139.160156 C 1074.976562 63.40625 815.914062 0.0820312 506.003906 0.0820312 C 196.089844 0.0820312 -62.96875 63.40625 -62.96875 139.160156 Z M 1074.976562 139.160156 " clip-rule="nonzero"/></clipPath><clipPath id="a7c5a68380"><rect x="0" width="1024" y="0" height="137"/></clipPath><clipPath id="73e7b2ce6e"><path d="M 13.242188 0.140625 L 186 0.140625 L 186 120.183594 L 13.242188 120.183594 Z M 13.242188 0.140625 " clip-rule="nonzero"/></clipPath><clipPath id="ecea70b5fa"><path d="M 56.421875 120.183594 L 142.78125 120.183594 L 185.960938 -9.355469 L 13.242188 -9.355469 Z M 56.421875 120.183594 " clip-rule="nonzero"/></clipPath><clipPath id="ace713c4a5"><path d="M 0.242188 0.140625 L 173 0.140625 L 173 120.183594 L 0.242188 120.183594 Z M 0.242188 0.140625 " clip-rule="nonzero"/></clipPath><clipPath id="a8732cf211"><path d="M 43.421875 120.183594 L 129.78125 120.183594 L 172.960938 -9.355469 L 0.242188 -9.355469 Z M 43.421875 120.183594 " clip-rule="nonzero"/></clipPath><clipPath id="7ad25361dc"><rect x="0" width="173" y="0" height="121"/></clipPath><clipPath id="c950abe8af"><path d="M 317.007812 0.140625 L 489.726562 0.140625 L 489.726562 149.089844 L 317.007812 149.089844 Z M 317.007812 0.140625 " clip-rule="nonzero"/></clipPath><clipPath id="105455d23e"><path d="M 360.1875 -24.976562 L 489.726562 -24.976562 L 446.546875 149.046875 L 317.007812 149.046875 Z M 360.1875 -24.976562 " clip-rule="nonzero"/></clipPath><clipPath id="fbe969b3b2"><path d="M 0.0078125 0.140625 L 172.726562 0.140625 L 172.726562 149.089844 L 0.0078125 149.089844 Z M 0.0078125 0.140625 " clip-rule="nonzero"/></clipPath><clipPath id="ed9e8bf314"><path d="M 43.1875 -24.976562 L 172.726562 -24.976562 L 129.546875 149.046875 L 0.0078125 149.046875 Z M 43.1875 -24.976562 " clip-rule="nonzero"/></clipPath><clipPath id="42817ee292"><rect x="0" width="173" y="0" height="150"/></clipPath></defs><g clip-path="url(#0bf3c9ba79)"><g transform="matrix(1, 0, 0, 1, 0, -0.000000000000058398)"><g clip-path="url(#c73e82b842)"><g clip-path="url(#fa8af2a5dd)"><path fill="#263238" d="M 0 0.140625 L 1023.25 0.140625 L 1023.25 575.859375 L 0 575.859375 Z M 0 0.140625 " fill-opacity="1" fill-rule="nonzero"/></g></g></g></g><g clip-path="url(#fd815ac931)"><g clip-path="url(#f170aa9f2b)"><g transform="matrix(1, 0, 0, 1, 317, -0.000000000000058398)"><g clip-path="url(#06c8f53cb0)"><g clip-path="url(#43a6127608)"><g clip-path="url(#8f5684d302)"><path fill="#e3dfff" d="M 0.00390625 84.273438 L 0.00390625 -145.859375 L 74.863281 -145.859375 L 74.863281 84.273438 Z M 0.00390625 84.273438 " fill-opacity="1" fill-rule="nonzero"/></g></g></g></g></g></g><g clip-path="url(#357859cb5d)"><g clip-path="url(#faf08e959f)"><g transform="matrix(1, 0, 0, 1, 221, 86)"><g clip-path="url(#a8057408e5)"><g clip-path="url(#d73d2e7d2a)"><g clip-path="url(#a2ed8340a2)"><path fill="#e3dfff" d="M 0.585938 0.949219 L 191.566406 0.949219 L 191.566406 137.898438 L 0.585938 137.898438 Z M 0.585938 0.949219 " fill-opacity="1" fill-rule="nonzero"/></g></g></g></g></g></g><g clip-path="url(#67ab6a89e5)"><g clip-path="url(#d30120fea1)"><g transform="matrix(1, 0, 0, 1, 122, -0.000000000000058398)"><g clip-path="url(#fcf6a157ac)"><g clip-path="url(#7b8e911f45)"><g clip-path="url(#45df4f7dce)"><path fill="#e3dfff" d="M 0.253906 -24.976562 L 190.695312 -24.976562 L 190.695312 157.621094 L 0.253906 157.621094 Z M 0.253906 -24.976562 " fill-opacity="1" fill-rule="nonzero"/></g></g></g></g></g></g><g clip-path="url(#6d55fcd8b8)"><g clip-path="url(#0bf4259c93)"><g transform="matrix(1, 0, 0, 1, 0, -0.000000000000058398)"><g clip-path="url(#aba90f6594)"><g clip-path="url(#c4b615a999)"><g clip-path="url(#ef19f60a74)"><path fill="#e3dfff" d="M 0 0.140625 L 172.546875 0.140625 L 172.546875 129.675781 L 0 129.675781 Z M 0 0.140625 " fill-opacity="1" fill-rule="nonzero"/></g></g></g></g></g></g><g clip-path="url(#1ac88045cf)"><g clip-path="url(#2d0c72d65c)"><g transform="matrix(1, 0, 0, 1, 132, -0.000000000000058398)"><g clip-path="url(#9a08d1aeaa)"><g clip-path="url(#ce3e8bdcf5)"><g clip-path="url(#28489a907c)"><path fill="#8976ff" d="M 0.75 -29.84375 L 175.574219 -29.84375 L 175.574219 152.492188 L 0.75 152.492188 Z M 0.75 -29.84375 " fill-opacity="1" fill-rule="nonzero"/></g></g></g></g></g></g><g clip-path="url(#ef6c361c92)"><g clip-path="url(#147a14eefc)"><g transform="matrix(1, 0, 0, 1, 235, 84)"><g clip-path="url(#7f70847877)"><g clip-path="url(#6a2fa534a2)"><g clip-path="url(#b804bcca87)"><path fill="#8976ff" d="M 0.789062 0.277344 L 183.203125 0.277344 L 183.203125 137.226562 L 0.789062 137.226562 Z M 0.789062 0.277344 " fill-opacity="1" fill-rule="nonzero"/></g></g></g></g></g></g><g transform="matrix(1, 0, 0, 1, 391, 197)"><g clip-path="url(#75c7f879a7)"><g clip-path="url(#b3bf3e9c3b)"><g clip-path="url(#0900d41459)"><g transform="matrix(1, 0, 0, 1, 42, 37)"><g clip-path="url(#7909cd6d4f)"><g clip-path="url(#ea7907d770)"><g clip-path="url(#c4f687f142)"><path fill="#8c52ff" d="M 0.742188 0.207031 L 98.914062 0.207031 L 98.914062 230.296875 L 0.742188 230.296875 Z M 0.742188 0.207031 " fill-opacity="1" fill-rule="nonzero"/></g></g></g></g></g></g><g clip-path="url(#44593659b3)"><g clip-path="url(#5f0b1517ed)"><g transform="matrix(1, 0, 0, 1, 27, 120)"><g clip-path="url(#a1524a8816)"><g clip-path="url(#e18126e55c)"><g clip-path="url(#5f403da92e)"><path fill="#8c52ff" d="M 0.175781 0.8125 L 68.992188 0.8125 L 68.992188 104.839844 L 0.175781 104.839844 Z M 0.175781 0.8125 " fill-opacity="1" fill-rule="nonzero"/></g></g></g></g></g></g><g clip-path="url(#31147c3796)"><g clip-path="url(#ac62b915df)"><g transform="matrix(1, 0, 0, 1, 58, 84)"><g clip-path="url(#6a2a859a59)"><g clip-path="url(#734cac4561)"><g clip-path="url(#7eaffa0a3b)"><path fill="#251e20" d="M 67.484375 73.421875 L 0.164062 73.421875 L 0.164062 0.320312 L 67.484375 0.320312 Z M 67.484375 73.421875 " fill-opacity="1" fill-rule="nonzero"/></g></g></g></g></g></g><g clip-path="url(#9ce3371fc9)"><g clip-path="url(#44ac83f407)"><g transform="matrix(1, 0, 0, 1, 58, 50)"><g clip-path="url(#f1fd00e548)"><g clip-path="url(#a42c584142)"><g clip-path="url(#bc6694632b)"><path fill="#f4d4b7" d="M 0.167969 0.535156 L 67.488281 0.535156 L 67.488281 67.851562 L 0.167969 67.851562 Z M 0.167969 0.535156 " fill-opacity="1" fill-rule="nonzero"/></g></g></g></g></g></g><g clip-path="url(#3253e43099)"><g clip-path="url(#8924330458)"><g transform="matrix(1, 0, 0, 1, 58, -0.000000000000056843)"><g clip-path="url(#b088338f58)"><g clip-path="url(#bf21bfa970)"><g clip-path="url(#bb9fd4e0db)"><path fill="#8c52ff" d="M 0.167969 0.59375 L 67.488281 0.59375 L 67.488281 73.695312 L 0.167969 73.695312 Z M 0.167969 0.59375 " fill-opacity="1" fill-rule="nonzero"/></g></g></g></g></g></g><g clip-path="url(#b765b47f8b)"><g transform="matrix(1, 0, 0, 1, 39, 70)"><g clip-path="url(#4d00bc763f)"><g clip-path="url(#13088dba4c)"><path fill="#8c52ff" d="M 0.277344 0.847656 L 105.367188 0.847656 L 105.367188 6.800781 L 0.277344 6.800781 Z M 0.277344 0.847656 " fill-opacity="1" fill-rule="nonzero"/></g></g></g></g><g clip-path="url(#facdca8de5)"><g clip-path="url(#3472f7dbca)"><g transform="matrix(1, 0, 0, 1, 80, 78)"><g clip-path="url(#e6e445386b)"><g clip-path="url(#80f6515af0)"><g clip-path="url(#91f0c7cf83)"><path fill="#ffffff" d="M 0.648438 0.605469 L 11.828125 0.605469 L 11.828125 11.785156 L 0.648438 11.785156 Z M 0.648438 0.605469 " fill-opacity="1" fill-rule="nonzero"/></g></g></g></g></g></g><g clip-path="url(#eade63b7cf)"><g clip-path="url(#98677561d6)"><g transform="matrix(1, 0, 0, 1, 95, 78)"><g clip-path="url(#242db76c7f)"><g clip-path="url(#16820fd506)"><g clip-path="url(#4ff3ec61d1)"><path fill="#ffffff" d="M 0.0078125 0.605469 L 11.1875 0.605469 L 11.1875 11.785156 L 0.0078125 11.785156 Z M 0.0078125 0.605469 " fill-opacity="1" fill-rule="nonzero"/></g></g></g></g></g></g><g clip-path="url(#7c4362c8fd)"><g transform="matrix(1, 0, 0, 1, 26, 26)"><g clip-path="url(#e6759132f7)"><g clip-path="url(#93ccc6e1f2)"><path fill="#70480c" d="M 0.207031 0.898438 L 4.863281 0.898438 L 4.863281 241.238281 L 0.207031 241.238281 Z M 0.207031 0.898438 " fill-opacity="1" fill-rule="nonzero"/></g></g></g></g><g clip-path="url(#120f413be8)"><g clip-path="url(#ccf7a87a63)"><g transform="matrix(1, 0, 0, 1, 0, 120)"><g clip-path="url(#3de50c3627)"><g clip-path="url(#693149af7a)"><g clip-path="url(#4aa37ff565)"><path fill="#f4d4b7" d="M 0.867188 0.8125 L 39.277344 0.8125 L 39.277344 39.21875 L 0.867188 39.21875 Z M 0.867188 0.8125 " fill-opacity="1" fill-rule="nonzero"/></g></g></g></g></g></g><g clip-path="url(#d90c24ec09)"><g clip-path="url(#1c4010aefa)"><g transform="matrix(1, 0, 0, 1, 13, 13)"><g clip-path="url(#f5d187a8c1)"><g clip-path="url(#c7e7bd0012)"><g clip-path="url(#a3b443cd18)"><path fill="#8976ff" d="M 0.183594 0.0546875 L 30.886719 0.0546875 L 30.886719 30.757812 L 0.183594 30.757812 Z M 0.183594 0.0546875 " fill-opacity="1" fill-rule="nonzero"/></g></g></g></g></g></g><g clip-path="url(#99aedb507a)"><g clip-path="url(#2c70510161)"><g transform="matrix(1, 0, 0, 1, 21, 19)"><g clip-path="url(#a70d3bbe47)"><g clip-path="url(#90778fa49a)"><g clip-path="url(#76e4b0f9b4)"><path fill="#e3dfff" d="M 0.429688 0.480469 L 18.277344 0.480469 L 18.277344 18.328125 L 0.429688 18.328125 Z M 0.429688 0.480469 " fill-opacity="1" fill-rule="nonzero"/></g></g></g></g></g></g></g></g><g mask="url(#0255a3f52d)"><g transform="matrix(1, 0, 0, 1, 343, 145)"><g clip-path="url(#1b7024dd77)"><g clip-path="url(#a8b3f4be1c)"><g clip-path="url(#75f4d5c255)"><g transform="matrix(1, 0, 0, 1, 0, 1)"><g clip-path="url(#7e196245ad)"><g clip-path="url(#d56f2a24a2)"><g clip-path="url(#d755f02bd3)"><path fill="#8976ff" d="M 0.164062 0.00390625 L 150.601562 0.00390625 L 150.601562 150.445312 L 0.164062 150.445312 Z M 0.164062 0.00390625 " fill-opacity="1" fill-rule="nonzero"/></g></g></g></g></g></g></g></g></g><g transform="matrix(1, 0, 0, 1, 531, 327)"><g clip-path="url(#3edf18aeae)"><g clip-path="url(#d7c8ce75ad)"><g clip-path="url(#7a1a100004)"><g transform="matrix(1, 0, 0, 1, 20, 93)"><g clip-path="url(#42c1126884)"><g clip-path="url(#54761209d1)"><g clip-path="url(#66c12cb9a1)"><path fill="#ffffff" d="M 0.640625 0.0507812 L 19.605469 0.0507812 L 19.605469 26.496094 L 0.640625 26.496094 Z M 0.640625 0.0507812 " fill-opacity="1" fill-rule="nonzero"/></g></g></g></g></g></g><g clip-path="url(#9a3a5aa461)"><g clip-path="url(#b7b123016a)"><g transform="matrix(1, 0, 0, 1, 0, 13)"><g clip-path="url(#1ceaa339dd)"><g clip-path="url(#6697e675a8)"><g clip-path="url(#73db1c22bb)"><path fill="#8976ff" d="M 0.914062 0.773438 L 8 0.773438 L 8 7.859375 L 0.914062 7.859375 Z M 0.914062 0.773438 " fill-opacity="1" fill-rule="nonzero"/></g></g></g></g></g></g><g clip-path="url(#320068270a)"><g clip-path="url(#73008646c5)"><g transform="matrix(1, 0, 0, 1, 2, -0.000000000000056843)"><g clip-path="url(#5c3be73f22)"><g clip-path="url(#924aab1fee)"><g clip-path="url(#b3063f3743)"><path fill="#ffffff" d="M 0.53125 51.636719 L 0.53125 0.226562 L 38.460938 0.226562 L 38.460938 51.636719 Z M 0.53125 51.636719 " fill-opacity="1" fill-rule="nonzero"/></g></g></g></g></g></g><g clip-path="url(#580497eca9)"><g clip-path="url(#b8e6d0b3a4)"><g clip-path="url(#167db7e36e)"><g transform="matrix(1, 0, 0, 1, 41, 8)"><g clip-path="url(#05d3bde271)"><g clip-path="url(#be9ede4d0d)"><g clip-path="url(#4ae8f08b44)"><g clip-path="url(#4b0bb81d0c)"><path fill="#ffffff" d="M 40.859375 59.359375 L 24.113281 66.167969 L 0.308594 7.621094 L 17.054688 0.8125 Z M 40.859375 59.359375 " fill-opacity="1" fill-rule="nonzero"/></g></g></g></g></g></g></g></g><g clip-path="url(#78cc505b95)"><g clip-path="url(#6711e8b869)"><g clip-path="url(#85b2a8b053)"><g transform="matrix(1, 0, 0, 1, 28, 9)"><g clip-path="url(#ca463d3829)"><g clip-path="url(#ac52c89c01)"><g clip-path="url(#d5ace1dd0e)"><g clip-path="url(#2a49d78bf1)"><path fill="#263238" d="M 1.1875 -0.195312 L 9.011719 1.171875 L 7.644531 8.992188 L -0.179688 7.628906 Z M 1.1875 -0.195312 " fill-opacity="1" fill-rule="nonzero"/></g></g></g></g></g></g></g></g><g clip-path="url(#68a4e625a6)"><g clip-path="url(#594446a8ff)"><g transform="matrix(1, 0, 0, 1, 35, 90)"><g clip-path="url(#9c43ae54f0)"><g clip-path="url(#695fa8704c)"><g clip-path="url(#ca3875734a)"><path fill="#ffffff" d="M 0.21875 0.941406 L 19.183594 0.941406 L 19.183594 29.460938 L 0.21875 29.460938 Z M 0.21875 0.941406 " fill-opacity="1" fill-rule="nonzero"/></g></g></g></g></g></g><g clip-path="url(#4b556e93de)"><g clip-path="url(#bac7f7a017)"><g transform="matrix(1, 0, 0, 1, 39, -0.000000000000056843)"><g clip-path="url(#49d7ee5567)"><g clip-path="url(#df5c73a3d8)"><g clip-path="url(#7e0fb80ed5)"><path fill="#ffffff" d="M 0.605469 51.636719 L 0.605469 0.285156 L 26.179688 0.285156 L 26.179688 51.636719 Z M 0.605469 51.636719 " fill-opacity="1" fill-rule="nonzero"/></g></g></g></g></g></g><g clip-path="url(#6782929620)"><g clip-path="url(#7bcf38f86f)"><g transform="matrix(1, 0, 0, 1, 11, 48)"><g clip-path="url(#2dca12c31e)"><g clip-path="url(#96ee5f1394)"><g clip-path="url(#563bda4d51)"><path fill="#ffffff" d="M 0.78125 0.324219 L 47.628906 0.324219 L 47.628906 26.167969 L 0.78125 26.167969 Z M 0.78125 0.324219 " fill-opacity="1" fill-rule="nonzero"/></g></g></g></g></g></g><g clip-path="url(#af2b27d7a0)"><g clip-path="url(#71eeaeb6d6)"><g transform="matrix(1, 0, 0, 1, 11, 72)"><g clip-path="url(#0e9efb1024)"><g clip-path="url(#d06ca928a6)"><g clip-path="url(#9c4521ee44)"><path fill="#ffffff" d="M 0.78125 0.273438 L 47.617188 0.273438 L 47.617188 31.09375 L 0.78125 31.09375 Z M 0.78125 0.273438 " fill-opacity="1" fill-rule="nonzero"/></g></g></g></g></g></g><g clip-path="url(#d7df6b4ed5)"><g clip-path="url(#2bec3fd59a)"><g transform="matrix(1, 0, 0, 1, 13, 57)"><g clip-path="url(#15ee0253e4)"><g clip-path="url(#3f369ed17d)"><g clip-path="url(#061a07cb2a)"><path fill="#e3dfff" d="M 0.648438 0.265625 L 14.636719 0.265625 L 14.636719 36.054688 L 0.648438 36.054688 Z M 0.648438 0.265625 " fill-opacity="1" fill-rule="nonzero"/></g></g></g></g></g></g></g></g><g clip-path="url(#dafeccdd68)"><g clip-path="url(#210885691e)"><g transform="matrix(1, 0, 0, 1, 0, 439)"><g clip-path="url(#a7c5a68380)"><g clip-path="url(#d701010073)"><g clip-path="url(#34bfc6d844)"><path fill="#8c52ff" d="M -62.96875 0.0820312 L 1075.203125 0.0820312 L 1075.203125 139.160156 L -62.96875 139.160156 Z M -62.96875 0.0820312 " fill-opacity="1" fill-rule="nonzero"/></g></g></g></g></g></g><g clip-path="url(#73e7b2ce6e)"><g clip-path="url(#ecea70b5fa)"><g transform="matrix(1, 0, 0, 1, 13, -0.000000000000058398)"><g clip-path="url(#7ad25361dc)"><g clip-path="url(#ace713c4a5)"><g clip-path="url(#a8732cf211)"><path fill="#8976ff" d="M 0.242188 -9.355469 L 172.789062 -9.355469 L 172.789062 120.183594 L 0.242188 120.183594 Z M 0.242188 -9.355469 " fill-opacity="1" fill-rule="nonzero"/></g></g></g></g></g></g><g clip-path="url(#c950abe8af)"><g clip-path="url(#105455d23e)"><g transform="matrix(1, 0, 0, 1, 317, -0.000000000000058398)"><g clip-path="url(#42817ee292)"><g clip-path="url(#fbe969b3b2)"><g clip-path="url(#ed9e8bf314)"><path fill="#8976ff" d="M 0.0078125 -24.976562 L 172.726562 -24.976562 L 172.726562 149.089844 L 0.0078125 149.089844 Z M 0.0078125 -24.976562 " fill-opacity="1" fill-rule="nonzero"/></g></g></g></g></g></g></svg>