<svg xmlns="http://www.w3.org/2000/svg" xmlns:xlink="http://www.w3.org/1999/xlink" width="2000" zoomAndPan="magnify" viewBox="0 0 1500 1499.999933" height="2000" preserveAspectRatio="xMidYMid meet" version="1.0"><defs><clipPath id="40686a6bc0"><path d="M 750 0 C 335.785156 0 0 335.785156 0 750 C 0 1164.214844 335.785156 1500 750 1500 C 1164.214844 1500 1500 1164.214844 1500 750 C 1500 335.785156 1164.214844 0 750 0 Z M 750 0 " clip-rule="nonzero"/></clipPath><clipPath id="e6a8ad2eb2"><path d="M 0 0 L 1500 0 L 1500 1500 L 0 1500 Z M 0 0 " clip-rule="nonzero"/></clipPath><clipPath id="b1a559b131"><path d="M 750 0 C 335.785156 0 0 335.785156 0 750 C 0 1164.214844 335.785156 1500 750 1500 C 1164.214844 1500 1500 1164.214844 1500 750 C 1500 335.785156 1164.214844 0 750 0 Z M 750 0 " clip-rule="nonzero"/></clipPath><clipPath id="c629166ac3"><rect x="0" width="1500" y="0" height="1500"/></clipPath></defs><g clip-path="url(#40686a6bc0)"><g transform="matrix(1, 0, 0, 1, 0, 0.000000000000112861)"><g clip-path="url(#c629166ac3)"><g clip-path="url(#e6a8ad2eb2)"><g clip-path="url(#b1a559b131)"><rect x="-330" width="2160" fill="#8c52ff" height="2159.999904" y="-329.999985" fill-opacity="1"/></g></g></g></g></g><path fill="#ffffff" d="M 377.777344 388.984375 C 478.96875 336.105469 597.5625 313.910156 710.066406 336.539062 C 809.296875 356.125 899.820312 407.480469 976.203125 472.761719 C 982.949219 477.984375 989.695312 485.167969 999.050781 482.773438 C 1079.132812 473.417969 1169.222656 483.863281 1229.0625 543.269531 C 1252.78125 565.898438 1269.101562 594.839844 1290.429688 619.648438 C 1300.65625 630.964844 1295 647.9375 1288.46875 659.472656 C 1281.070312 673.617188 1263.664062 676.878906 1253 687.761719 C 1243.207031 702.339844 1234.9375 718.878906 1220.359375 729.542969 C 1171.398438 766.96875 1108.726562 781.332031 1048.011719 782.636719 C 1042.136719 828.554688 1029.300781 875.121094 998.832031 911.246094 C 965.757812 950.847656 917.230469 971.957031 870.664062 991.757812 C 854.996094 913.855469 829.316406 830.730469 765.558594 778.722656 C 725.953125 745.425781 671.769531 736.941406 621.5 743.46875 C 648.265625 745.863281 675.902344 746.734375 700.273438 758.699219 C 754.894531 783.074219 791.671875 835.082031 814.300781 888.613281 C 833.234375 932.789062 843.242188 980.226562 849.988281 1027.664062 C 897.863281 994.152344 950.960938 969.128906 1002.316406 941.492188 C 1045.835938 919.949219 1096.105469 902.976562 1145.066406 913.855469 C 1171.832031 919.511719 1188.589844 943.449219 1196.640625 968.039062 C 1141.585938 975.003906 1090.664062 999.15625 1040.832031 1022.007812 C 960.097656 1060.957031 881.324219 1104.261719 806.902344 1154.09375 C 789.277344 1164.539062 773.175781 1186.082031 750.324219 1177.597656 C 751.195312 1126.894531 760.988281 1074.234375 741.402344 1025.488281 C 727.910156 987.84375 692.875 960.859375 654.140625 953.894531 C 593.648438 942.363281 532.714844 959.554688 474.613281 975.4375 C 443.0625 984.144531 406.070312 984.359375 379.300781 963.253906 C 343.179688 936.488281 331.429688 889.703125 325.554688 847.265625 C 300.3125 853.578125 271.152344 860.976562 247.867188 845.308594 C 213.050781 821.15625 199.339844 771.105469 214.136719 731.28125 C 220.230469 746.296875 228.933594 760.878906 245.691406 765.445312 C 236.550781 748.472656 225.453125 730.195312 230.457031 709.957031 C 232.199219 689.71875 247.433594 675.140625 263.097656 664.257812 C 260.921875 685.585938 271.367188 704.515625 287.90625 717.574219 C 287.90625 703.210938 283.335938 687.761719 289.429688 674.050781 C 295.742188 666.652344 304.445312 661.863281 312.496094 656.640625 C 318.15625 681.230469 331.863281 702.777344 353.625 716.050781 C 370.164062 692.332031 386.699219 668.175781 409.113281 649.242188 C 441.320312 620.953125 481.359375 603.765625 522.269531 592.449219 C 563.835938 581.566406 606.484375 573.082031 649.570312 576.78125 C 709.414062 581.566406 765.339844 605.285156 819.308594 630.09375 C 846.507812 642.714844 874.578125 654.902344 904.390625 660.125 C 900.476562 639.886719 894.816406 619.429688 898.296875 598.757812 C 900.910156 578.085938 911.789062 560.242188 922.234375 542.832031 C 859.5625 512.804688 788.40625 503.445312 719.425781 509.320312 C 674.816406 513.019531 632.382812 528.472656 588.859375 537.828125 C 520.964844 552.84375 450.460938 560.894531 381.042969 550.886719 C 399.105469 507.582031 432.617188 467.539062 478.96875 454.265625 C 494.417969 448.609375 510.300781 456.007812 525.753906 457.964844 C 603.222656 470.585938 682.214844 470.804688 760.550781 470.152344 C 792.757812 469.5 824.3125 476.027344 855.863281 480.597656 C 728.5625 442.949219 591.6875 467.105469 464.824219 427.5 C 434.792969 417.925781 405.632812 404.433594 377.777344 388.984375 Z M 1101.980469 548.492188 C 1113.730469 579.828125 1140.933594 607.679688 1174.660156 613.554688 C 1189.894531 616.386719 1201.210938 604.199219 1211.4375 595.058594 C 1175.53125 578.304688 1139.625 561.546875 1101.980469 548.492188 Z M 1101.980469 548.492188 " fill-opacity="1" fill-rule="nonzero"/></svg>